<mxfile host="drawio-plugin" modified="2023-09-07T12:58:51.856Z" agent="5.0 (Windows NT 10.0; Win64; x64) AppleWebKit/537.36 (KHTML, like Gecko) Chrome/111.0.0.0 Safari/537.36" etag="dXSgT-LUC2qK71qVLsB1" version="20.5.3" type="embed"><diagram name="Seite-1" id="-2VjJTFV00PebQVn-Hf1"><mxGraphModel dx="1227" dy="1118" grid="1" gridSize="10" guides="1" tooltips="1" connect="1" arrows="1" fold="1" page="1" pageScale="1" pageWidth="827" pageHeight="1169" math="0" shadow="0"><root><mxCell id="0"/><mxCell id="1" parent="0"/><mxCell id="32" value="" style="group" parent="1" vertex="1" connectable="0"><mxGeometry x="20" y="95" width="1150" height="490" as="geometry"/></mxCell><mxCell id="2" value="" style="group" parent="32" vertex="1" connectable="0"><mxGeometry x="-10" y="42.34342331031598" width="1150" height="441.61" as="geometry"/></mxCell><mxCell id="99" value="" style="group" vertex="1" connectable="0" parent="2"><mxGeometry y="24.2" width="840" height="417.41" as="geometry"/></mxCell><mxCell id="ngzUgmsreJfInocwCasy-2" value="CAN_MessageManager" style="shape=module;align=left;spacingLeft=20;align=center;verticalAlign=top;whiteSpace=wrap;html=1;" parent="99" vertex="1"><mxGeometry width="840" height="417.41" as="geometry"/></mxCell><mxCell id="ngzUgmsreJfInocwCasy-3" value="CAN_Transceiver" style="swimlane;fontStyle=1;align=center;verticalAlign=top;childLayout=stackLayout;horizontal=1;startSize=26;horizontalStack=0;resizeParent=1;resizeParentMax=0;resizeLast=0;collapsible=1;marginBottom=0;whiteSpace=wrap;html=1;" parent="99" vertex="1"><mxGeometry x="40" y="280.688888888889" width="332.79" height="130.0493827160494" as="geometry"/></mxCell><mxCell id="ngzUgmsreJfInocwCasy-4" value="- can_message" style="text;strokeColor=none;fillColor=none;align=left;verticalAlign=top;spacingLeft=4;spacingRight=4;overflow=hidden;rotatable=0;points=[[0,0.5],[1,0.5]];portConstraint=eastwest;whiteSpace=wrap;html=1;" parent="ngzUgmsreJfInocwCasy-3" vertex="1"><mxGeometry y="26" width="332.79" height="31.456790123456795" as="geometry"/></mxCell><mxCell id="ngzUgmsreJfInocwCasy-5" value="" style="line;strokeWidth=1;fillColor=none;align=left;verticalAlign=middle;spacingTop=-1;spacingLeft=3;spacingRight=3;rotatable=0;labelPosition=right;points=[];portConstraint=eastwest;strokeColor=inherit;" parent="ngzUgmsreJfInocwCasy-3" vertex="1"><mxGeometry y="57.4567901234568" width="332.79" height="9.679012345679014" as="geometry"/></mxCell><mxCell id="IL8WAM_x9eWzcNovHGls-12" value="+ receiveCAN_Message(canMessage: Message)" style="text;strokeColor=none;fillColor=none;align=left;verticalAlign=top;spacingLeft=4;spacingRight=4;overflow=hidden;rotatable=0;points=[[0,0.5],[1,0.5]];portConstraint=eastwest;whiteSpace=wrap;html=1;" parent="ngzUgmsreJfInocwCasy-3" vertex="1"><mxGeometry y="67.13580246913581" width="332.79" height="31.456790123456795" as="geometry"/></mxCell><mxCell id="IL8WAM_x9eWzcNovHGls-13" value="+ sendCAN_Message(canMessage: Message)" style="text;strokeColor=none;fillColor=none;align=left;verticalAlign=top;spacingLeft=4;spacingRight=4;overflow=hidden;rotatable=0;points=[[0,0.5],[1,0.5]];portConstraint=eastwest;whiteSpace=wrap;html=1;" parent="ngzUgmsreJfInocwCasy-3" vertex="1"><mxGeometry y="98.59259259259261" width="332.79" height="31.456790123456795" as="geometry"/></mxCell><mxCell id="IL8WAM_x9eWzcNovHGls-1" value="&lt;i&gt;Transceiver&lt;br&gt;&amp;lt;&amp;lt;interface&amp;gt;&amp;gt;&lt;br&gt;&lt;/i&gt;" style="swimlane;fontStyle=1;align=center;verticalAlign=top;childLayout=stackLayout;horizontal=1;startSize=40;horizontalStack=0;resizeParent=1;resizeParentMax=0;resizeLast=0;collapsible=1;marginBottom=0;whiteSpace=wrap;html=1;" parent="99" vertex="1"><mxGeometry x="22.959999999999997" y="48.39259259259261" width="366.88" height="112.59259259259261" as="geometry"/></mxCell><mxCell id="IL8WAM_x9eWzcNovHGls-3" value="" style="line;strokeWidth=1;fillColor=none;align=left;verticalAlign=middle;spacingTop=-1;spacingLeft=3;spacingRight=3;rotatable=0;labelPosition=right;points=[];portConstraint=eastwest;strokeColor=inherit;" parent="IL8WAM_x9eWzcNovHGls-1" vertex="1"><mxGeometry y="40" width="366.88" height="9.679012345679016" as="geometry"/></mxCell><mxCell id="IL8WAM_x9eWzcNovHGls-4" value="+ receiveMessage(callbackMethod: callable, bus: Bus, loop=True)&amp;nbsp;" style="text;strokeColor=none;fillColor=none;align=left;verticalAlign=top;spacingLeft=4;spacingRight=4;overflow=hidden;rotatable=0;points=[[0,0.5],[1,0.5]];portConstraint=eastwest;whiteSpace=wrap;html=1;" parent="IL8WAM_x9eWzcNovHGls-1" vertex="1"><mxGeometry y="49.67901234567901" width="366.88" height="31.456790123456802" as="geometry"/></mxCell><mxCell id="IL8WAM_x9eWzcNovHGls-5" value="+ sendMessage(bus: Bus, message: Message)" style="text;strokeColor=none;fillColor=none;align=left;verticalAlign=top;spacingLeft=4;spacingRight=4;overflow=hidden;rotatable=0;points=[[0,0.5],[1,0.5]];portConstraint=eastwest;whiteSpace=wrap;html=1;" parent="IL8WAM_x9eWzcNovHGls-1" vertex="1"><mxGeometry y="81.13580246913581" width="366.88" height="31.456790123456802" as="geometry"/></mxCell><mxCell id="IL8WAM_x9eWzcNovHGls-6" style="edgeStyle=orthogonalEdgeStyle;rounded=0;orthogonalLoop=1;jettySize=auto;html=1;dashed=1;endArrow=block;endFill=0;" parent="99" source="ngzUgmsreJfInocwCasy-3" target="IL8WAM_x9eWzcNovHGls-1" edge="1"><mxGeometry relative="1" as="geometry"/></mxCell><mxCell id="3" value="&lt;i&gt;Bus&lt;/i&gt;&lt;i&gt;&lt;br&gt;&lt;/i&gt;" style="swimlane;fontStyle=1;align=center;verticalAlign=top;childLayout=stackLayout;horizontal=1;startSize=30;horizontalStack=0;resizeParent=1;resizeParentMax=0;resizeLast=0;collapsible=1;marginBottom=0;whiteSpace=wrap;html=1;" parent="99" vertex="1"><mxGeometry x="439.5" y="22.985185185185205" width="120" height="134.04938271604942" as="geometry"/></mxCell><mxCell id="4" value="" style="line;strokeWidth=1;fillColor=none;align=left;verticalAlign=middle;spacingTop=-1;spacingLeft=3;spacingRight=3;rotatable=0;labelPosition=right;points=[];portConstraint=eastwest;strokeColor=inherit;" parent="3" vertex="1"><mxGeometry y="30" width="120" height="9.679012345679016" as="geometry"/></mxCell><mxCell id="7" value="+ readLoop()" style="text;strokeColor=none;fillColor=none;align=left;verticalAlign=top;spacingLeft=4;spacingRight=4;overflow=hidden;rotatable=0;points=[[0,0.5],[1,0.5]];portConstraint=eastwest;whiteSpace=wrap;html=1;" parent="3" vertex="1"><mxGeometry y="39.67901234567901" width="120" height="31.456790123456802" as="geometry"/></mxCell><mxCell id="8" value="+ send()" style="text;strokeColor=none;fillColor=none;align=left;verticalAlign=top;spacingLeft=4;spacingRight=4;overflow=hidden;rotatable=0;points=[[0,0.5],[1,0.5]];portConstraint=eastwest;whiteSpace=wrap;html=1;" parent="3" vertex="1"><mxGeometry y="71.13580246913581" width="120" height="31.456790123456802" as="geometry"/></mxCell><mxCell id="95" value="+ read()" style="text;strokeColor=none;fillColor=none;align=left;verticalAlign=top;spacingLeft=4;spacingRight=4;overflow=hidden;rotatable=0;points=[[0,0.5],[1,0.5]];portConstraint=eastwest;whiteSpace=wrap;html=1;" parent="3" vertex="1"><mxGeometry y="102.59259259259261" width="120" height="31.456790123456802" as="geometry"/></mxCell><mxCell id="28" style="edgeStyle=orthogonalEdgeStyle;rounded=0;orthogonalLoop=1;jettySize=auto;html=1;endArrow=none;endFill=0;" parent="99" source="9" target="ngzUgmsreJfInocwCasy-3" edge="1"><mxGeometry relative="1" as="geometry"/></mxCell><mxCell id="9" value="&lt;i&gt;SerialMesssage&lt;br&gt;&lt;/i&gt;" style="swimlane;fontStyle=1;align=center;verticalAlign=top;childLayout=stackLayout;horizontal=1;startSize=30;horizontalStack=0;resizeParent=1;resizeParentMax=0;resizeLast=0;collapsible=1;marginBottom=0;whiteSpace=wrap;html=1;" parent="99" vertex="1"><mxGeometry x="434" y="336.45271604938273" width="131" height="71.13580246913583" as="geometry"/></mxCell><mxCell id="34" value="- serialMessage" style="text;strokeColor=none;fillColor=none;align=left;verticalAlign=top;spacingLeft=4;spacingRight=4;overflow=hidden;rotatable=0;points=[[0,0.5],[1,0.5]];portConstraint=eastwest;whiteSpace=wrap;html=1;" parent="9" vertex="1"><mxGeometry y="30" width="131" height="31.456790123456813" as="geometry"/></mxCell><mxCell id="10" value="" style="line;strokeWidth=1;fillColor=none;align=left;verticalAlign=middle;spacingTop=-1;spacingLeft=3;spacingRight=3;rotatable=0;labelPosition=right;points=[];portConstraint=eastwest;strokeColor=inherit;" parent="9" vertex="1"><mxGeometry y="61.45679012345681" width="131" height="9.679012345679018" as="geometry"/></mxCell><mxCell id="15" value="&lt;i&gt;Messsage&lt;br&gt;&lt;/i&gt;" style="swimlane;fontStyle=1;align=center;verticalAlign=top;childLayout=stackLayout;horizontal=1;startSize=30;horizontalStack=0;resizeParent=1;resizeParentMax=0;resizeLast=0;collapsible=1;marginBottom=0;whiteSpace=wrap;html=1;" parent="99" vertex="1"><mxGeometry x="600" y="273.45740740740746" width="230" height="102.59259259259261" as="geometry"/></mxCell><mxCell id="16" value="" style="line;strokeWidth=1;fillColor=none;align=left;verticalAlign=middle;spacingTop=-1;spacingLeft=3;spacingRight=3;rotatable=0;labelPosition=right;points=[];portConstraint=eastwest;strokeColor=inherit;" parent="15" vertex="1"><mxGeometry y="30" width="230" height="9.679012345679013" as="geometry"/></mxCell><mxCell id="17" value="+ encode(message) -&amp;gt; encodedMessage" style="text;strokeColor=none;fillColor=none;align=left;verticalAlign=top;spacingLeft=4;spacingRight=4;overflow=hidden;rotatable=0;points=[[0,0.5],[1,0.5]];portConstraint=eastwest;whiteSpace=wrap;html=1;" parent="15" vertex="1"><mxGeometry y="39.67901234567901" width="230" height="31.4567901234568" as="geometry"/></mxCell><mxCell id="18" value="+ decode(message) -&amp;gt; decodedMessage" style="text;strokeColor=none;fillColor=none;align=left;verticalAlign=top;spacingLeft=4;spacingRight=4;overflow=hidden;rotatable=0;points=[[0,0.5],[1,0.5]];portConstraint=eastwest;whiteSpace=wrap;html=1;" parent="15" vertex="1"><mxGeometry y="71.13580246913581" width="230" height="31.4567901234568" as="geometry"/></mxCell><mxCell id="29" style="edgeStyle=orthogonalEdgeStyle;rounded=0;orthogonalLoop=1;jettySize=auto;html=1;endArrow=block;endFill=0;dashed=1;" parent="99" source="9" target="15" edge="1"><mxGeometry relative="1" as="geometry"/></mxCell><mxCell id="98" style="edgeStyle=orthogonalEdgeStyle;rounded=0;orthogonalLoop=1;jettySize=auto;html=1;endArrow=block;endFill=0;dashed=1;" parent="99" source="19" target="3" edge="1"><mxGeometry relative="1" as="geometry"><Array as="points"><mxPoint x="590" y="178"/><mxPoint x="590" y="90"/></Array></mxGeometry></mxCell><mxCell id="19" value="ArduinoSerialBus" style="swimlane;fontStyle=1;align=center;verticalAlign=top;childLayout=stackLayout;horizontal=1;startSize=30;horizontalStack=0;resizeParent=1;resizeParentMax=0;resizeLast=0;collapsible=1;marginBottom=0;whiteSpace=wrap;html=1;" parent="99" vertex="1"><mxGeometry x="422" y="166.9637329985353" width="155" height="71.13580246913583" as="geometry"/></mxCell><mxCell id="20" value="" style="line;strokeWidth=1;fillColor=none;align=left;verticalAlign=middle;spacingTop=-1;spacingLeft=3;spacingRight=3;rotatable=0;labelPosition=right;points=[];portConstraint=eastwest;strokeColor=inherit;" parent="19" vertex="1"><mxGeometry y="30" width="155" height="9.679012345679018" as="geometry"/></mxCell><mxCell id="25" value="- __init__(Microcontroller)" style="text;strokeColor=none;fillColor=none;align=left;verticalAlign=top;spacingLeft=4;spacingRight=4;overflow=hidden;rotatable=0;points=[[0,0.5],[1,0.5]];portConstraint=eastwest;whiteSpace=wrap;html=1;" parent="19" vertex="1"><mxGeometry y="39.67901234567902" width="155" height="31.456790123456813" as="geometry"/></mxCell><mxCell id="30" style="edgeStyle=orthogonalEdgeStyle;rounded=0;orthogonalLoop=1;jettySize=auto;html=1;endArrow=none;endFill=0;" parent="99" source="ngzUgmsreJfInocwCasy-3" target="19" edge="1"><mxGeometry relative="1" as="geometry"><Array as="points"><mxPoint x="300" y="199.0222222222223"/></Array></mxGeometry></mxCell><mxCell id="38" style="edgeStyle=orthogonalEdgeStyle;rounded=0;orthogonalLoop=1;jettySize=auto;html=1;endArrow=block;endFill=0;endSize=6;dashed=1;" parent="99" source="35" target="15" edge="1"><mxGeometry relative="1" as="geometry"/></mxCell><mxCell id="39" style="edgeStyle=orthogonalEdgeStyle;rounded=0;orthogonalLoop=1;jettySize=auto;html=1;endArrow=none;endFill=0;endSize=6;" parent="99" source="35" target="ngzUgmsreJfInocwCasy-3" edge="1"><mxGeometry relative="1" as="geometry"><Array as="points"><mxPoint x="450" y="303.6765432098766"/><mxPoint x="450" y="303.6765432098766"/></Array></mxGeometry></mxCell><mxCell id="78" value="&lt;i&gt;Microcontroller&lt;/i&gt;&lt;i&gt;&lt;br&gt;&lt;/i&gt;" style="swimlane;fontStyle=1;align=center;verticalAlign=top;childLayout=stackLayout;horizontal=1;startSize=30;horizontalStack=0;resizeParent=1;resizeParentMax=0;resizeLast=0;collapsible=1;marginBottom=0;whiteSpace=wrap;html=1;" parent="99" vertex="1"><mxGeometry x="640" y="38.710914417242066" width="120" height="102.59259259259261" as="geometry"/></mxCell><mxCell id="79" value="" style="line;strokeWidth=1;fillColor=none;align=left;verticalAlign=middle;spacingTop=-1;spacingLeft=3;spacingRight=3;rotatable=0;labelPosition=right;points=[];portConstraint=eastwest;strokeColor=inherit;" parent="78" vertex="1"><mxGeometry y="30" width="120" height="9.679012345679013" as="geometry"/></mxCell><mxCell id="80" value="+ open()" style="text;strokeColor=none;fillColor=none;align=left;verticalAlign=top;spacingLeft=4;spacingRight=4;overflow=hidden;rotatable=0;points=[[0,0.5],[1,0.5]];portConstraint=eastwest;whiteSpace=wrap;html=1;" parent="78" vertex="1"><mxGeometry y="39.67901234567901" width="120" height="31.4567901234568" as="geometry"/></mxCell><mxCell id="81" value="+ close()" style="text;strokeColor=none;fillColor=none;align=left;verticalAlign=top;spacingLeft=4;spacingRight=4;overflow=hidden;rotatable=0;points=[[0,0.5],[1,0.5]];portConstraint=eastwest;whiteSpace=wrap;html=1;" parent="78" vertex="1"><mxGeometry y="71.13580246913581" width="120" height="31.4567901234568" as="geometry"/></mxCell><mxCell id="91" style="edgeStyle=orthogonalEdgeStyle;rounded=0;orthogonalLoop=1;jettySize=auto;html=1;dashed=1;endArrow=block;endFill=0;" parent="99" source="86" target="78" edge="1"><mxGeometry relative="1" as="geometry"><Array as="points"><mxPoint x="720" y="120.98518518518522"/><mxPoint x="720" y="120.98518518518522"/></Array></mxGeometry></mxCell><mxCell id="86" value="Arduino&lt;i&gt;&lt;br&gt;&lt;/i&gt;" style="swimlane;fontStyle=1;align=center;verticalAlign=top;childLayout=stackLayout;horizontal=1;startSize=30;horizontalStack=0;resizeParent=1;resizeParentMax=0;resizeLast=0;collapsible=1;marginBottom=0;whiteSpace=wrap;html=1;" parent="99" vertex="1"><mxGeometry x="640" y="154.50481481481486" width="120" height="96.05105670642396" as="geometry"/></mxCell><mxCell id="88" value="- port: str" style="text;strokeColor=none;fillColor=none;align=left;verticalAlign=top;spacingLeft=4;spacingRight=4;overflow=hidden;rotatable=0;points=[[0,0.5],[1,0.5]];portConstraint=eastwest;whiteSpace=wrap;html=1;" parent="86" vertex="1"><mxGeometry y="30" width="120" height="24.915254237288146" as="geometry"/></mxCell><mxCell id="89" value="- baudRate: int" style="text;strokeColor=none;fillColor=none;align=left;verticalAlign=top;spacingLeft=4;spacingRight=4;overflow=hidden;rotatable=0;points=[[0,0.5],[1,0.5]];portConstraint=eastwest;whiteSpace=wrap;html=1;" parent="86" vertex="1"><mxGeometry y="54.915254237288146" width="120" height="31.456790123456805" as="geometry"/></mxCell><mxCell id="87" value="" style="line;strokeWidth=1;fillColor=none;align=left;verticalAlign=middle;spacingTop=-1;spacingLeft=3;spacingRight=3;rotatable=0;labelPosition=right;points=[];portConstraint=eastwest;strokeColor=inherit;" parent="86" vertex="1"><mxGeometry y="86.37204436074495" width="120" height="9.679012345679016" as="geometry"/></mxCell><mxCell id="96" style="edgeStyle=orthogonalEdgeStyle;rounded=0;orthogonalLoop=1;jettySize=auto;html=1;endArrow=none;endFill=0;" parent="99" source="19" target="86" edge="1"><mxGeometry relative="1" as="geometry"><Array as="points"><mxPoint x="650" y="196.60246913580247"/><mxPoint x="650" y="196.60246913580247"/></Array></mxGeometry></mxCell><mxCell id="35" value="&lt;i&gt;CAN_Messsage&lt;br&gt;&lt;/i&gt;" style="swimlane;fontStyle=1;align=center;verticalAlign=top;childLayout=stackLayout;horizontal=1;startSize=30;horizontalStack=0;resizeParent=1;resizeParentMax=0;resizeLast=0;collapsible=1;marginBottom=0;whiteSpace=wrap;html=1;" parent="99" vertex="1"><mxGeometry x="439" y="250.5603703703705" width="121" height="71.13580246913583" as="geometry"/></mxCell><mxCell id="36" value="-canMessage" style="text;strokeColor=none;fillColor=none;align=left;verticalAlign=top;spacingLeft=4;spacingRight=4;overflow=hidden;rotatable=0;points=[[0,0.5],[1,0.5]];portConstraint=eastwest;whiteSpace=wrap;html=1;" parent="35" vertex="1"><mxGeometry y="30" width="121" height="31.456790123456813" as="geometry"/></mxCell><mxCell id="37" value="" style="line;strokeWidth=1;fillColor=none;align=left;verticalAlign=middle;spacingTop=-1;spacingLeft=3;spacingRight=3;rotatable=0;labelPosition=right;points=[];portConstraint=eastwest;strokeColor=inherit;" parent="35" vertex="1"><mxGeometry y="61.45679012345681" width="121" height="9.679012345679018" as="geometry"/></mxCell><mxCell id="31" value="" style="html=1;verticalAlign=bottom;labelBackgroundColor=none;endArrow=oval;endFill=0;endSize=19;rounded=0;" parent="32" source="IL8WAM_x9eWzcNovHGls-1" edge="1"><mxGeometry width="160" relative="1" as="geometry"><mxPoint x="229" y="120.98765432098764" as="sourcePoint"/><mxPoint x="196" y="25" as="targetPoint"/></mxGeometry></mxCell></root></mxGraphModel></diagram></mxfile>